<svg xmlns="http://www.w3.org/2000/svg" viewBox="0 0 182.29 31.06"><defs><style>.a{fill:#717a82;}.b{fill:#fff;}</style></defs><title>allergenius_logo</title><rect class="a" width="30.33" height="30.33" rx="5.25"/><path class="b" d="M21,23.07H11L9.39,27.84H4.12l9-25.07H19l9,25.07H22.66ZM16,8.58,12.41,19.05h7.24Z" transform="translate(-0.88 -0.83)"/><path class="b" d="M51.36,21.34H44.13L42.94,24.8H39.11L45.64,6.62h4.24L56.4,24.8H52.56Zm-3.61-10.5-2.63,7.59h5.25Z" transform="translate(-0.88 -0.83)"/><path class="b" d="M58.59,5.56h3.64V24.8H58.59Z" transform="translate(-0.88 -0.83)"/><path class="b" d="M65.29,5.56h3.64V24.8H65.29Z" transform="translate(-0.88 -0.83)"/><path class="b" d="M78.81,25c-4.18,0-7.22-2.91-7.22-7.43s3-7.44,7.22-7.44a6.76,6.76,0,0,1,7.1,7.12,8.36,8.36,0,0,1-.1,1.41H75.28A3.37,3.37,0,0,0,78.74,22a3,3,0,0,0,2.88-1.75h3.93A6.69,6.69,0,0,1,78.81,25ZM75.3,16.24h6.84a3.2,3.2,0,0,0-3.43-3.09A3.35,3.35,0,0,0,75.3,16.24Z" transform="translate(-0.88 -0.83)"/><path class="b" d="M91.81,24.8H88.17V10.39h3.64v2.24a5,5,0,0,1,4.42-2.44V14h-1c-2.16,0-3.46.83-3.46,3.61Z" transform="translate(-0.88 -0.83)"/><path class="b" d="M104.06,10.16a5.64,5.64,0,0,1,4.76,2.29V10.39h3.66V24.9c0,3.9-2.39,7-7.12,7-4.06,0-6.89-2-7.25-5.33h3.61c.36,1.3,1.72,2.16,3.54,2.16,2,0,3.56-1.15,3.56-3.83V22.67A5.71,5.71,0,0,1,104.06,25c-3.67,0-6.58-3-6.58-7.49S100.39,10.16,104.06,10.16Zm.94,3.2a3.84,3.84,0,0,0-3.8,4.18c0,2.73,1.85,4.29,3.8,4.29s3.82-1.5,3.82-4.23S107,13.36,105,13.36Z" transform="translate(-0.88 -0.83)"/><path class="b" d="M122.08,25c-4.19,0-7.23-2.91-7.23-7.43s3-7.44,7.23-7.44a6.76,6.76,0,0,1,7.1,7.12,8.37,8.37,0,0,1-.11,1.41H118.54A3.37,3.37,0,0,0,122,22a3,3,0,0,0,2.89-1.75h3.92A6.68,6.68,0,0,1,122.08,25Zm-3.51-8.79h6.84A3.21,3.21,0,0,0,122,13.15,3.34,3.34,0,0,0,118.57,16.24Z" transform="translate(-0.88 -0.83)"/><path class="b" d="M141.66,16.84c0-2.31-1.28-3.56-3.2-3.56s-3.25,1.25-3.25,3.56v8h-3.64V10.39h3.64v1.8a5.37,5.37,0,0,1,4.34-2c3.35,0,5.75,2.18,5.75,6.16V24.8h-3.64Z" transform="translate(-0.88 -0.83)"/><path class="b" d="M148,6.55a2.24,2.24,0,1,1,2.24,2.13A2.14,2.14,0,0,1,148,6.55Zm.39,3.84H152V24.8h-3.64Z" transform="translate(-0.88 -0.83)"/><path class="b" d="M168.67,24.8H165V23a5.31,5.31,0,0,1-4.29,2c-3.35,0-5.77-2.18-5.77-6.14V10.39h3.64v7.93c0,2.32,1.27,3.57,3.2,3.57S165,20.64,165,18.32V10.39h3.67Z" transform="translate(-0.88 -0.83)"/><path class="b" d="M177.51,25c-3.62,0-6.14-2.1-6.29-4.78h3.66a2.39,2.39,0,0,0,2.6,1.92c1.43,0,2.21-.65,2.21-1.48,0-2.57-8.14-.94-8.14-6.21,0-2.4,2.14-4.32,5.7-4.32s5.59,1.9,5.8,4.76h-3.49a2.14,2.14,0,0,0-2.42-1.87c-1.35,0-2,.54-2,1.37,0,2.63,8,1,8.09,6.27C183.18,23.16,181,25,177.51,25Z" transform="translate(-0.88 -0.83)"/></svg>