<?xml version="1.0" encoding="utf-8"?>
<!-- Generator: Adobe Illustrator 23.0.1, SVG Export Plug-In . SVG Version: 6.00 Build 0)  -->
<svg version="1.1" id="Layer_1" xmlns="http://www.w3.org/2000/svg" xmlns:xlink="http://www.w3.org/1999/xlink" x="0px" y="0px"
	 viewBox="0 0 373.5 74.9" style="enable-background:new 0 0 373.5 74.9;" xml:space="preserve">
<style type="text/css">
	.st0{fill:#F2BA18;}
	.st1{fill:#FFFFFF;}
	.st2{fill:#717A82;}
</style>
<title>allergenius_logo</title>
<path class="st0" d="M14.5,2.5h46.1c6.7,0,12.2,5.5,12.2,12.2v46.1c0,6.7-5.5,12.2-12.2,12.2H14.5c-6.7,0-12.2-5.5-12.2-12.2V14.6
	C2.3,7.9,7.7,2.5,14.5,2.5z"/>
<path class="st1" d="M47.8,52.5H27l-3.4,9.9h-11l18.7-52.2h12.2l18.7,52.2H51.3L47.8,52.5z M37.4,22.4l-7.5,21.8H45L37.4,22.4z"/>
<path class="st2" d="M108.1,48.4H93.6l-2.4,6.9h-7.7l13.1-36.3h8.5l13,36.3h-7.7L108.1,48.4z M100.9,27.4l-5.3,15.2h10.5L100.9,27.4
	z"/>
<path class="st2" d="M122.5,16.8h7.3v38.5h-7.3V16.8z"/>
<path class="st2" d="M135.9,16.8h7.3v38.5h-7.3V16.8z"/>
<path class="st2" d="M163,55.7c-8.4,0-14.4-5.8-14.4-14.9S154.5,26,163,26c7.5-0.4,13.8,5.3,14.2,12.8c0,0.5,0,1,0,1.4
	c0,0.9-0.1,1.9-0.2,2.8h-21.1c0,3.7,3.1,6.7,6.8,6.7c0,0,0.1,0,0.1,0c2.5,0.1,4.7-1.3,5.8-3.5h7.9C174.7,52.1,169.1,56,163,55.7z
	 M156,38.2h13.7c-0.1-3.5-3.1-6.3-6.6-6.2c-0.1,0-0.2,0-0.3,0C159.2,31.9,156.2,34.6,156,38.2z"/>
<path class="st2" d="M189,55.3h-7.3V26.5h7.3V31c1.8-3.1,5.2-5,8.8-4.9v7.6h-2c-4.3,0-6.9,1.7-6.9,7.2L189,55.3z"/>
<path class="st2" d="M213.5,26c3.7-0.1,7.3,1.6,9.5,4.6v-4.1h7.3v29c0,7.8-4.8,14-14.2,14c-8.1,0-13.8-4-14.5-10.7h7.2
	c0.7,2.6,3.4,4.3,7.1,4.3c4,0,7.1-2.3,7.1-7.7V51c-2.2,3-5.8,4.8-9.5,4.7c-7.3,0-13.2-6-13.2-15S206.1,26,213.5,26z M215.3,32.4
	c-4.2,0-7.7,3.5-7.6,7.7c0,0.2,0,0.4,0,0.6c0,5.5,3.7,8.6,7.6,8.6s7.6-3,7.6-8.5S219.3,32.4,215.3,32.4z"/>
<path class="st2" d="M249.5,55.7c-8.4,0-14.5-5.8-14.5-14.9S241,26,249.5,26c7.5-0.4,13.8,5.3,14.2,12.8c0,0.5,0,1,0,1.4
	c0,0.9-0.1,1.9-0.2,2.8h-21.1c0,3.7,3.1,6.7,6.8,6.7c0,0,0.1,0,0.1,0c2.5,0.1,4.8-1.3,5.8-3.5h7.8C261.2,52.1,255.6,56,249.5,55.7z
	 M242.5,38.1h13.7c-0.2-3.5-3.2-6.3-6.7-6.1c0,0-0.1,0-0.1,0C245.7,31.9,242.7,34.6,242.5,38.1L242.5,38.1z"/>
<path class="st2" d="M288.6,39.4c0-4.6-2.6-7.1-6.4-7.1s-6.5,2.5-6.5,7.1v16h-7.3V26.5h7.3v3.6c2.1-2.6,5.3-4.1,8.7-4
	c6.7,0,11.5,4.4,11.5,12.3v16.9h-7.3V39.4z"/>
<path class="st2" d="M301.3,18.8c-0.1-2.5,1.8-4.6,4.3-4.7c2.5-0.1,4.6,1.8,4.7,4.3c0.1,2.5-1.8,4.6-4.3,4.7c-0.1,0-0.1,0-0.2,0
	c-2.4,0.1-4.4-1.7-4.5-4.1C301.3,18.9,301.3,18.9,301.3,18.8z M302.1,26.5h7.2v28.8H302L302.1,26.5z"/>
<path class="st2" d="M342.6,55.3h-7.3v-3.6c-2.1,2.6-5.2,4.1-8.6,4c-6.7,0-11.5-4.4-11.5-12.3V26.5h7.3v15.9c0,4.6,2.5,7.1,6.4,7.1
	c3.9,0,6.4-2.5,6.4-7.1V26.5h7.3V55.3z"/>
<path class="st2" d="M360.3,55.7c-7.2,0-12.3-4.2-12.6-9.6h7.3c0.5,2.4,2.7,4.1,5.2,3.8c2.9,0,4.4-1.3,4.4-3
	c0-5.1-16.3-1.9-16.3-12.4c0-4.8,4.3-8.6,11.4-8.6s11.2,3.8,11.6,9.5h-7c-0.3-2.3-2.4-4-4.7-3.8c0,0-0.1,0-0.1,0c-2.7,0-4,1.1-4,2.7
	c0,5.3,16,2,16.2,12.5C371.6,52,367.3,55.7,360.3,55.7z"/>
</svg>
