<?xml version="1.0" encoding="utf-8"?>
<!-- Generator: Adobe Illustrator 23.0.3, SVG Export Plug-In . SVG Version: 6.00 Build 0)  -->
<svg version="1.1" id="Layer_1" xmlns="http://www.w3.org/2000/svg" xmlns:xlink="http://www.w3.org/1999/xlink" x="0px" y="0px"
	 viewBox="0 0 365.3 74.9" style="enable-background:new 0 0 365.3 74.9;" xml:space="preserve">
<style type="text/css">
	.st0{fill:#246EB9;}
	.st1{fill:#FDFFFC;}
</style>
<title>allergenius_logo</title>
<path class="st0" d="M14.5,2.5h46.1c6.7,0,12.2,5.5,12.2,12.2v46.1c0,6.7-5.5,12.2-12.2,12.2H14.5C7.8,73,2.3,67.5,2.3,60.8V14.6
	C2.3,7.9,7.7,2.5,14.5,2.5z"/>
<g>
	<path class="st1" d="M82.6,54.4c0-0.1,0.1-0.2,0.2-0.2c0.3,0,0.7-0.1,1.2-0.1c0.5-0.1,0.9-0.2,1.4-0.5c0.5-0.3,0.9-0.6,1.4-1.2
		c0.4-0.5,0.8-1.2,1.1-2.1L98.7,19c0,0,0,0,0,0c0,0,0-0.1,0-0.1c0-0.1,0-0.3-0.1-0.5c-0.1-0.2-0.1-0.3-0.1-0.4c0-0.1,0-0.1,0.1-0.1
		h7.8c0,0,0.1,0,0.1,0.1c0.1,0,0.1,0.1,0.1,0.2l11.3,31.8c0.2,0.5,0.3,0.9,0.5,1.3c0.2,0.4,0.4,0.7,0.6,1c0.2,0.3,0.5,0.5,0.8,0.8
		c0.3,0.2,0.8,0.5,1.3,0.7c0.2,0.1,0.6,0.3,1,0.4c0.4,0.1,0.8,0.2,1.2,0.2c0.1,0,0.1,0,0.2,0.1c0,0.1,0,0.1,0,0.2v1c0,0,0,0.1,0,0.1
		c0,0.1-0.1,0.1-0.2,0.1h-18.8c-0.1,0-0.1,0-0.2-0.1c0-0.1,0-0.1,0-0.1v-1c0,0,0-0.1,0-0.1c0-0.1,0.1-0.1,0.2-0.1c0.1,0,0.1,0,0.2,0
		c0.1,0,0.1,0,0.2,0c0.2,0,0.5,0,0.8-0.1c0.4,0,0.8,0,1.2-0.1c0.4,0,0.9-0.1,1.3-0.2c0.4-0.1,0.8-0.2,1.2-0.4
		c0.4-0.2,0.7-0.4,0.9-0.7c0.2-0.3,0.3-0.7,0.3-1.1c0-0.1,0-0.2-0.1-0.4l-3.5-9.7c0,0,0-0.1-0.1-0.2c0-0.1-0.1-0.3-0.2-0.4
		c-0.1-0.1-0.2-0.3-0.4-0.4c-0.2-0.1-0.3-0.2-0.5-0.2h-9.7c-0.2,0-0.4,0.1-0.6,0.2s-0.3,0.2-0.4,0.3c-0.1,0.1-0.2,0.3-0.3,0.4
		c-0.1,0.1-0.1,0.2-0.1,0.2c-0.6,1.7-1.1,3.1-1.4,4.2c-0.4,1.2-0.7,2.1-1,2.9c-0.3,0.8-0.5,1.3-0.6,1.7c-0.1,0.4-0.2,0.7-0.3,0.9
		c-0.1,0.2-0.1,0.3-0.1,0.4c0,0.1,0,0.1,0,0.2c0,0.1,0,0.1,0.1,0.2c0.1,0.4,0.4,0.8,0.8,1.1c0.4,0.3,0.8,0.5,1.3,0.7
		c0.5,0.2,1,0.3,1.5,0.4c0.5,0.1,1,0.1,1.4,0.1h0.7c0.1,0,0.1,0,0.2,0.1c0,0.1,0,0.1,0,0.1v1c0,0,0,0.1,0,0.1c0,0.1-0.1,0.1-0.2,0.1
		H82.8c-0.1,0-0.2-0.1-0.2-0.2V54.4z M96.6,36.5c0,0.1-0.1,0.2-0.1,0.3c0,0.1,0,0.2,0,0.3c0,0.1,0,0.2,0.1,0.3
		c0.1,0.1,0.2,0.1,0.3,0.1h8c0.2,0,0.3,0,0.4-0.1c0.1-0.1,0.1-0.2,0.1-0.3c0-0.1,0-0.2,0-0.2c0-0.1,0-0.2-0.1-0.2l-3.6-9.8
		c-0.1-0.2-0.2-0.4-0.4-0.5c-0.2-0.1-0.3-0.2-0.5-0.2c-0.1,0-0.3,0.1-0.5,0.2c-0.2,0.1-0.3,0.3-0.4,0.5L96.6,36.5z"/>
	<path class="st1" d="M140.4,54.9c0,0.1,0,0.3-0.1,0.5c0,0.2-0.1,0.3-0.2,0.3h-14c-0.1,0-0.2-0.2-0.2-0.3c0-0.2-0.1-0.3-0.1-0.5
		c0-0.1,0-0.2,0.1-0.4c0.1-0.2,0.1-0.3,0.2-0.3c0.2-0.1,0.6-0.2,1-0.3c0.4-0.1,0.9-0.2,1.3-0.4c0.4-0.2,0.8-0.5,1.1-0.9
		c0.3-0.4,0.5-1,0.5-1.8V19.5c0-0.4-0.1-0.8-0.3-1c-0.2-0.2-0.5-0.4-0.9-0.5c-0.4-0.1-0.7-0.2-1.2-0.3c-0.4-0.1-0.8-0.2-1.2-0.3
		c-0.2-0.1-0.3-0.3-0.3-0.8c0-0.1,0-0.2,0.1-0.4c0.1-0.2,0.2-0.3,0.3-0.4l8.9-4.2c0.1,0,0.2-0.1,0.2-0.1c0.1,0,0.2-0.1,0.3-0.1
		c0.1,0,0.2,0,0.3,0.1c0,0.1,0.1,0.3,0.1,0.5v38.6c0,0.8,0.2,1.4,0.5,1.8c0.3,0.4,0.7,0.7,1.1,0.9c0.4,0.2,0.9,0.3,1.3,0.4
		c0.4,0.1,0.8,0.1,1,0.3c0.1,0,0.1,0.2,0.2,0.3C140.4,54.6,140.4,54.8,140.4,54.9z"/>
	<path class="st1" d="M157.4,54.9c0,0.1,0,0.3-0.1,0.5c0,0.2-0.1,0.3-0.2,0.3h-14c-0.1,0-0.2-0.2-0.2-0.3c0-0.2-0.1-0.3-0.1-0.5
		c0-0.1,0-0.2,0.1-0.4c0.1-0.2,0.1-0.3,0.2-0.3c0.2-0.1,0.6-0.2,1-0.3c0.4-0.1,0.9-0.2,1.3-0.4c0.4-0.2,0.8-0.5,1.1-0.9
		c0.3-0.4,0.5-1,0.5-1.8V19.5c0-0.4-0.1-0.8-0.3-1c-0.2-0.2-0.5-0.4-0.9-0.5c-0.4-0.1-0.7-0.2-1.2-0.3c-0.4-0.1-0.8-0.2-1.2-0.3
		c-0.2-0.1-0.3-0.3-0.3-0.8c0-0.1,0-0.2,0.1-0.4c0.1-0.2,0.2-0.3,0.3-0.4l8.9-4.2c0.1,0,0.2-0.1,0.2-0.1c0.1,0,0.2-0.1,0.3-0.1
		c0.1,0,0.2,0,0.3,0.1c0,0.1,0.1,0.3,0.1,0.5v38.6c0,0.8,0.2,1.4,0.5,1.8c0.3,0.4,0.7,0.7,1.1,0.9c0.4,0.2,0.9,0.3,1.3,0.4
		c0.4,0.1,0.8,0.1,1,0.3c0.1,0,0.1,0.2,0.2,0.3C157.4,54.6,157.4,54.8,157.4,54.9z"/>
	<path class="st1" d="M158.2,44.8c0-2.1,0.3-4,0.9-5.8c0.6-1.8,1.4-3.3,2.5-4.6c1.1-1.3,2.5-2.3,4.1-3c1.6-0.7,3.4-1.1,5.5-1.1
		c0.6,0,1.2,0,1.6,0.1c0.5,0.1,0.9,0.2,1.3,0.3c0.4,0.1,0.8,0.3,1.1,0.5c0.3,0.2,0.7,0.4,1.1,0.6c0.4,0.2,0.9,0.6,1.4,1.2
		c0.5,0.6,1,1.2,1.5,1.9c0.5,0.7,0.9,1.5,1.2,2.3c0.3,0.8,0.5,1.6,0.5,2.4c0,0.3,0,0.5-0.1,0.8c-0.1,0.3-0.3,0.4-0.5,0.4h-15.8
		c-0.2,0-0.3,0.2-0.4,0.5c-0.1,0.3-0.1,0.7-0.1,1.2c0,1.6,0.2,3,0.7,4.2c0.5,1.2,1.1,2.3,1.8,3.1c0.8,0.8,1.7,1.5,2.7,1.9
		c1,0.4,2.1,0.7,3.2,0.7c0.7,0,1.4-0.1,2-0.3c0.6-0.2,1.3-0.4,1.8-0.7c0.6-0.3,1.1-0.6,1.7-1c0.5-0.4,1-0.8,1.5-1.1
		c0.1,0,0.2-0.1,0.2-0.1c0.1,0,0.1,0,0.2,0.1c0.2,0.1,0.3,0.3,0.5,0.5c0.2,0.2,0.3,0.3,0.4,0.5c0.1,0.1,0.1,0.1,0.1,0.2
		s0,0.1-0.1,0.2c-0.6,0.7-1.3,1.4-2.2,2.1c-0.9,0.7-1.8,1.3-2.7,1.8c-1,0.5-2,1-3,1.3s-2,0.5-2.9,0.5c-1.8,0-3.5-0.3-4.9-1
		c-1.4-0.7-2.6-1.5-3.6-2.6c-1-1.1-1.7-2.3-2.2-3.7C158.5,47.7,158.2,46.2,158.2,44.8z M173.9,38.9c0.5,0,0.7-0.2,0.7-0.6
		c0-0.7-0.1-1.4-0.3-2c-0.2-0.6-0.5-1.2-1-1.6c-0.4-0.5-0.9-0.8-1.5-1.1c-0.6-0.3-1.2-0.4-1.9-0.4c-0.9,0-1.6,0.2-2.3,0.5
		c-0.6,0.4-1.2,0.8-1.6,1.3c-0.4,0.5-0.8,1.1-1,1.6c-0.2,0.6-0.3,1-0.3,1.4c0,0.3,0,0.5,0.1,0.6c0.1,0.1,0.2,0.2,0.3,0.2H173.9z"/>
	<path class="st1" d="M192.2,30.5c0.1,0,0.1-0.1,0.2-0.1c0.1,0,0.1-0.1,0.2-0.1c0.3,0,0.5,0.2,0.5,0.6v4.6c0,0.1,0,0.1,0,0.2
		c0,0.1,0.1,0.1,0.1,0.1c0.1,0,0.2,0,0.2-0.1c0.1-0.1,0.1-0.1,0.2-0.2c0.3-0.4,0.7-0.9,1.1-1.4c0.4-0.5,0.8-1,1.3-1.5
		c0.5-0.5,0.9-0.9,1.4-1.2c0.5-0.3,1-0.5,1.4-0.5c0.3,0,0.7,0.1,1.3,0.3c0.5,0.2,1,0.4,1.5,0.6c0.5,0.2,0.9,0.5,1.3,0.8
		c0.3,0.3,0.5,0.5,0.5,0.6s-0.1,0.5-0.2,0.9c-0.2,0.4-0.4,0.9-0.6,1.3c-0.2,0.4-0.5,0.8-0.8,1.2c-0.3,0.3-0.5,0.5-0.8,0.5h-0.1
		c-0.3-0.1-0.6-0.2-1-0.4c-0.3-0.2-0.7-0.3-1-0.5c-0.3-0.2-0.7-0.3-1-0.4c-0.3-0.1-0.7-0.1-1.1-0.1c-0.5,0-1,0.1-1.5,0.3
		c-0.5,0.2-0.9,0.5-1.2,0.9c-0.3,0.3-0.6,0.7-0.8,1.2c-0.2,0.4-0.3,0.8-0.3,1.2v11.3c0,0.5,0.1,1,0.3,1.3c0.2,0.3,0.5,0.6,0.9,0.9
		c0.3,0.2,0.7,0.4,1.2,0.5c0.4,0.1,0.8,0.2,1.2,0.3c0.4,0.1,0.8,0.1,1.1,0.2c0.3,0,0.6,0.1,0.7,0.2c0.2,0.1,0.3,0.3,0.3,0.8
		c0,0.5-0.1,0.8-0.3,0.8h-15.5c-0.2,0-0.3-0.3-0.3-0.8c0-0.4,0.1-0.7,0.3-0.8c0.2-0.1,0.6-0.2,1-0.3c0.4-0.1,0.9-0.2,1.3-0.4
		c0.4-0.2,0.8-0.5,1.1-0.9c0.3-0.4,0.5-1,0.5-1.8V37.9c0-0.4-0.1-0.8-0.3-1c-0.2-0.2-0.5-0.4-0.9-0.5c-0.4-0.1-0.7-0.2-1.2-0.3
		c-0.4-0.1-0.8-0.2-1.2-0.3c-0.1,0-0.2-0.1-0.3-0.1c-0.1-0.1-0.1-0.2-0.1-0.4c0-0.1,0-0.2,0.1-0.3c0.1-0.1,0.2-0.2,0.3-0.3
		L192.2,30.5z"/>
	<path class="st1" d="M217.8,30.4c1.7,0,3.3,0.2,4.6,0.7c1.4,0.4,2.5,1.1,3.4,2c1.1,0,2.2-0.1,3.2-0.2c1-0.1,2.1-0.1,3.3-0.1
		c0.4,0,0.7,0,1,0c0.3,0,0.5,0.1,0.6,0.1c0.1,0.1,0.2,0.1,0.3,0.2c0.1,0.1,0.1,0.2,0.2,0.4c0.1,0.4,0.2,0.8,0.3,1.2
		c0.1,0.4,0.1,0.7,0.1,1.1c0,0.3-0.1,0.5-0.3,0.6c-0.2,0.1-0.7,0.1-1.4,0.1h-4.9c0.2,0.4,0.5,0.9,0.7,1.4c0.2,0.6,0.4,1.3,0.4,2.1
		c0,1.2-0.3,2.4-0.8,3.6c-0.6,1.2-1.4,2.2-2.4,3.1c-1.1,0.9-2.4,1.6-3.9,2.2c-1.5,0.5-3.3,0.8-5.3,0.8c-0.6,0-1.1,0-1.5-0.1
		c-0.4,0-0.8-0.1-1.2-0.2c-0.3,0.2-0.6,0.4-0.9,0.6c-0.4,0.2-0.7,0.4-1.1,0.6c-0.4,0.2-0.7,0.5-0.9,0.7c-0.3,0.3-0.4,0.6-0.4,1.1
		c0,0.8,0.7,1.3,2,1.6c1.3,0.3,3.4,0.5,6.4,0.5c2.2,0,4.3,0.1,6.1,0.2c1.8,0.1,3.4,0.4,4.7,0.8c1.3,0.5,2.3,1.2,3,2.1
		c0.7,1,1.1,2.3,1.1,4c0,0.7-0.2,1.5-0.5,2.3c-0.3,0.8-0.9,1.7-1.5,2.5c-0.7,0.8-1.6,1.6-2.6,2.4c-1,0.8-2.3,1.4-3.7,2
		c-1.4,0.6-3,1-4.8,1.4c-1.8,0.3-3.7,0.5-5.8,0.5c-1.9,0-3.5-0.2-4.9-0.5c-1.4-0.4-2.5-0.9-3.5-1.5c-0.9-0.6-1.6-1.3-2.1-2.1
		c-0.5-0.8-0.7-1.6-0.7-2.4c0-0.6,0.1-1.2,0.4-1.7c0.2-0.5,0.6-1,1-1.4c0.4-0.4,0.9-0.8,1.4-1.2c0.5-0.4,1-0.7,1.5-1.1
		c0.5-0.4,1-0.8,1.5-1.2c0.5-0.4,0.9-0.9,1.3-1.4c-0.9-0.1-1.8-0.3-2.6-0.7c-0.8-0.3-1.4-0.7-2-1.1c-0.5-0.4-1-0.9-1.3-1.4
		c-0.3-0.5-0.5-1-0.5-1.5c0-0.5,0.1-0.9,0.4-1.3c0.3-0.4,0.6-0.7,1-1c0.4-0.3,0.9-0.5,1.4-0.8c0.5-0.2,1.1-0.5,1.7-0.7
		c0.4-0.1,0.7-0.3,1.1-0.5c0.4-0.2,0.8-0.4,1.2-0.7c-2.1-0.9-3.7-2-4.8-3.4c-1.1-1.4-1.6-3-1.6-4.8c0-1.4,0.3-2.8,1-4
		c0.6-1.3,1.5-2.3,2.7-3.3c1.1-0.9,2.5-1.6,4-2.2C214.4,30.7,216.1,30.4,217.8,30.4z M210.2,64.1c0,0.8,0.2,1.5,0.7,2.3
		c0.5,0.8,1.1,1.4,1.9,2.1c0.8,0.6,1.7,1.1,2.7,1.5c1.1,0.4,2.2,0.6,3.4,0.6c1.3,0,2.5-0.2,3.6-0.6c1.2-0.4,2.2-1,3.1-1.7
		c0.9-0.7,1.6-1.5,2.2-2.4c0.6-0.9,0.8-1.9,0.8-2.9c0-0.6-0.1-1.1-0.3-1.6c-0.2-0.4-0.4-0.8-0.8-1.1c-0.3-0.3-0.7-0.5-1.1-0.7
		c-0.4-0.2-0.9-0.3-1.3-0.3c-0.4,0-1-0.1-1.9-0.1c-0.9,0-1.9-0.1-2.9-0.1c-0.7,0-1.3,0-2,0c-0.6,0-1.2,0-1.8,0c-0.5,0-1,0-1.5-0.1
		c-0.4,0-0.8,0-1-0.1c-0.3,0.4-0.7,0.8-1.2,1.1c-0.4,0.3-0.9,0.7-1.3,1.1c-0.4,0.4-0.7,0.9-1,1.4C210.4,62.9,210.2,63.5,210.2,64.1z
		 M222.9,40.7c0-1.4-0.1-2.6-0.4-3.7c-0.3-1.1-0.7-2-1.2-2.7c-0.5-0.7-1.1-1.3-1.9-1.7c-0.7-0.4-1.5-0.6-2.4-0.6
		c-0.5,0-1.1,0.1-1.7,0.3c-0.6,0.2-1.2,0.6-1.7,1.1c-0.5,0.5-1,1.3-1.3,2.2c-0.4,0.9-0.5,2.2-0.5,3.6c0,0.9,0.1,1.9,0.3,3
		c0.2,1,0.6,2,1,2.9c0.5,0.9,1.1,1.6,1.8,2.2c0.8,0.6,1.7,0.8,2.7,0.8c0.8,0,1.5-0.2,2.2-0.5c0.6-0.4,1.2-0.9,1.6-1.5
		c0.5-0.7,0.8-1.4,1.1-2.4C222.8,42.8,222.9,41.8,222.9,40.7z"/>
	<path class="st1" d="M235.9,44.8c0-2.1,0.3-4,0.9-5.8c0.6-1.8,1.4-3.3,2.5-4.6c1.1-1.3,2.5-2.3,4.1-3c1.6-0.7,3.4-1.1,5.5-1.1
		c0.6,0,1.2,0,1.6,0.1c0.5,0.1,0.9,0.2,1.3,0.3c0.4,0.1,0.8,0.3,1.1,0.5c0.3,0.2,0.7,0.4,1.1,0.6c0.4,0.2,0.9,0.6,1.4,1.2
		c0.5,0.6,1,1.2,1.5,1.9c0.5,0.7,0.9,1.5,1.2,2.3c0.3,0.8,0.5,1.6,0.5,2.4c0,0.3,0,0.5-0.1,0.8c-0.1,0.3-0.3,0.4-0.5,0.4h-15.8
		c-0.2,0-0.3,0.2-0.4,0.5c-0.1,0.3-0.1,0.7-0.1,1.2c0,1.6,0.2,3,0.7,4.2c0.5,1.2,1.1,2.3,1.8,3.1c0.8,0.8,1.7,1.5,2.7,1.9
		c1,0.4,2.1,0.7,3.2,0.7c0.7,0,1.4-0.1,2-0.3c0.6-0.2,1.3-0.4,1.8-0.7c0.6-0.3,1.1-0.6,1.7-1c0.5-0.4,1-0.8,1.5-1.1
		c0.1,0,0.2-0.1,0.2-0.1c0.1,0,0.1,0,0.2,0.1c0.2,0.1,0.3,0.3,0.5,0.5c0.2,0.2,0.3,0.3,0.4,0.5c0.1,0.1,0.1,0.1,0.1,0.2
		s0,0.1-0.1,0.2c-0.6,0.7-1.3,1.4-2.2,2.1c-0.9,0.7-1.8,1.3-2.7,1.8c-1,0.5-2,1-3,1.3s-2,0.5-2.9,0.5c-1.8,0-3.5-0.3-4.9-1
		c-1.4-0.7-2.6-1.5-3.6-2.6c-1-1.1-1.7-2.3-2.2-3.7C236.2,47.7,235.9,46.2,235.9,44.8z M251.7,38.9c0.5,0,0.7-0.2,0.7-0.6
		c0-0.7-0.1-1.4-0.3-2c-0.2-0.6-0.5-1.2-1-1.6c-0.4-0.5-0.9-0.8-1.5-1.1c-0.6-0.3-1.2-0.4-1.9-0.4c-0.9,0-1.6,0.2-2.3,0.5
		c-0.6,0.4-1.2,0.8-1.6,1.3c-0.4,0.5-0.8,1.1-1,1.6c-0.2,0.6-0.3,1-0.3,1.4c0,0.3,0,0.5,0.1,0.6c0.1,0.1,0.2,0.2,0.3,0.2H251.7z"/>
	<path class="st1" d="M269.2,29.7c0.1,0,0.1-0.1,0.2-0.1c0.1,0,0.1-0.1,0.2-0.1c0.3,0,0.5,0.2,0.5,0.6v4.2c0.1,0.2,0.1,0.3,0.2,0.3
		c0.1,0,0.2,0,0.2,0c0.1,0,0.1,0,0.2-0.1c1.1-0.6,2.1-1.1,2.9-1.5c0.8-0.4,1.5-0.7,2.1-1c0.6-0.3,1.1-0.5,1.6-0.6
		c0.5-0.2,0.9-0.3,1.4-0.3c0.5-0.1,1-0.1,1.5-0.1c0.6,0,1.2,0,2,0c0.9,0,1.6,0.2,2.3,0.6c0.6,0.4,1.2,0.9,1.6,1.5
		c0.4,0.6,0.8,1.3,1.1,2.1c0.3,0.8,0.5,1.6,0.6,2.4c0.1,0.8,0.2,1.7,0.3,2.5c0.1,0.8,0.1,1.6,0.1,2.2c0,0.6,0,1.2,0,1.7
		c0,0.5-0.1,1.1-0.1,1.8c0,0.6-0.1,1.4-0.1,2.2c0,0.8,0,1.8,0,2.9c0,0.5,0.1,1,0.3,1.3c0.2,0.4,0.5,0.7,0.8,0.9
		c0.3,0.2,0.7,0.4,1,0.5c0.4,0.1,0.7,0.2,1.1,0.3c0.4,0.1,0.7,0.1,1,0.2c0.3,0,0.5,0.1,0.7,0.2c0.1,0,0.1,0.2,0.2,0.3
		c0.1,0.2,0.1,0.3,0.1,0.4c0,0.1,0,0.3-0.1,0.5c0,0.2-0.1,0.3-0.2,0.4h-15c-0.1,0-0.2-0.2-0.2-0.4c0-0.2-0.1-0.4-0.1-0.5
		c0-0.1,0-0.2,0.1-0.4c0.1-0.2,0.1-0.3,0.2-0.3c0.2-0.1,0.5-0.2,0.9-0.3c0.4-0.1,0.8-0.2,1.2-0.4c0.4-0.2,0.8-0.5,1.1-1
		c0.3-0.4,0.5-1.1,0.7-1.9c0-0.3,0.1-0.5,0.1-0.8c0-0.2,0-0.5,0.1-0.7c0-0.2,0-0.5,0-0.8c0-0.3,0-0.6,0-1c0-0.8,0-1.7,0-2.6
		c0-0.9,0-1.9,0-3.1c0-0.9,0-1.7-0.1-2.6c-0.1-0.9-0.3-1.6-0.6-2.3c-0.3-0.7-0.8-1.2-1.4-1.7c-0.6-0.4-1.4-0.6-2.5-0.6
		c-0.4,0-0.7,0-1,0.1c-0.3,0-0.7,0.1-1.1,0.3c-0.4,0.2-1,0.4-1.6,0.7c-0.7,0.3-1.6,0.8-2.7,1.3c-0.1,0.1-0.3,0.2-0.4,0.3
		c-0.2,0.1-0.2,0.3-0.3,0.4v13.1c0,0.8,0.2,1.4,0.5,1.8c0.3,0.4,0.7,0.7,1.1,0.9c0.4,0.2,0.9,0.3,1.3,0.4c0.4,0.1,0.8,0.1,1,0.3
		c0.1,0,0.1,0.2,0.2,0.3c0.1,0.2,0.1,0.3,0.1,0.4c0,0.1,0,0.3-0.1,0.5c0,0.2-0.1,0.3-0.2,0.4h-14c-0.1,0-0.2-0.2-0.2-0.4
		c0-0.2-0.1-0.4-0.1-0.5c0-0.1,0-0.2,0.1-0.4c0.1-0.2,0.1-0.3,0.2-0.3c0.2-0.1,0.6-0.2,1-0.3c0.4-0.1,0.9-0.2,1.3-0.4
		c0.4-0.2,0.8-0.5,1.1-0.9c0.3-0.4,0.5-1,0.5-1.8V37.1c0-0.4-0.1-0.8-0.3-1c-0.2-0.2-0.5-0.4-0.9-0.5c-0.4-0.1-0.7-0.2-1.2-0.3
		c-0.4-0.1-0.8-0.2-1.2-0.3c-0.1,0-0.2-0.1-0.3-0.1c-0.1-0.1-0.1-0.2-0.1-0.4c0-0.1,0-0.2,0.1-0.3c0.1-0.1,0.2-0.2,0.3-0.3
		L269.2,29.7z"/>
	<path class="st1" d="M295.5,55.7c-0.1,0-0.2-0.2-0.2-0.4c0-0.2-0.1-0.4-0.1-0.5c0-0.1,0-0.2,0.1-0.4c0.1-0.2,0.1-0.3,0.2-0.3
		c0.2-0.1,0.6-0.2,1-0.3c0.4-0.1,0.9-0.2,1.3-0.4c0.4-0.2,0.8-0.5,1.1-0.9c0.3-0.4,0.5-1,0.5-1.8V37.9c0-0.4-0.1-0.8-0.3-1
		c-0.2-0.2-0.5-0.4-0.9-0.5c-0.4-0.1-0.7-0.2-1.2-0.3c-0.4-0.1-0.8-0.2-1.2-0.3c-0.1,0-0.2-0.1-0.3-0.1c-0.1-0.1-0.1-0.2-0.1-0.4
		c0-0.1,0-0.2,0.1-0.3c0.1-0.1,0.2-0.2,0.3-0.3l8.9-4.2c0.1,0,0.1-0.1,0.2-0.1c0.1,0,0.1-0.1,0.2-0.1c0.3,0,0.5,0.2,0.5,0.6v19.8
		c0,0.8,0.2,1.4,0.5,1.8c0.3,0.4,0.7,0.7,1.1,0.9c0.4,0.2,0.9,0.3,1.3,0.4c0.4,0.1,0.8,0.1,1,0.3c0.1,0,0.1,0.2,0.2,0.3
		c0.1,0.2,0.1,0.3,0.1,0.4c0,0.1,0,0.3-0.1,0.5c0,0.2-0.1,0.3-0.2,0.4H295.5z M298.2,20.6c0-1.1,0.3-2.1,1-2.7c0.7-0.7,1.6-1,2.7-1
		c1.1,0,2.1,0.3,2.7,1c0.7,0.7,1,1.6,1,2.7c0,1.1-0.3,2.1-1,2.7c-0.7,0.7-1.6,1-2.7,1c-1.1,0-2.1-0.3-2.7-1
		C298.6,22.7,298.2,21.8,298.2,20.6z"/>
	<path class="st1" d="M312.8,34.8c-0.4-0.4-0.9-0.6-1.4-0.7c-0.1,0-0.3-0.1-0.4-0.1c-0.2,0-0.3,0-0.4-0.1c-0.1,0-0.2-0.1-0.3-0.1
		c-0.1-0.1-0.1-0.2-0.1-0.3c0-0.1,0-0.3,0.1-0.4c0-0.1,0.2-0.2,0.4-0.2l8.2-2.4c0.1,0,0.2-0.1,0.3-0.1c0.1,0,0.2,0,0.3,0
		c0.2,0,0.3,0.2,0.3,0.5v18.1c0,0.6,0.1,1.2,0.4,1.6c0.3,0.5,0.6,0.9,1.1,1.2c0.4,0.3,1,0.6,1.5,0.8c0.6,0.2,1.2,0.3,1.8,0.3
		c0.4,0,0.9-0.1,1.3-0.2c0.5-0.1,0.9-0.3,1.3-0.5c0.4-0.2,0.8-0.5,1.2-0.8c0.4-0.3,0.7-0.6,0.9-0.9V36.1c-0.1-0.5-0.3-1-0.7-1.3
		c-0.4-0.4-0.9-0.6-1.4-0.7c-0.1,0-0.3-0.1-0.4-0.1c-0.2,0-0.3,0-0.4-0.1c-0.1,0-0.2-0.1-0.3-0.1c-0.1-0.1-0.1-0.2-0.1-0.3
		c0-0.1,0-0.3,0.1-0.4c0-0.1,0.2-0.2,0.4-0.2l8.2-2.3c0.1,0,0.2-0.1,0.3-0.1c0.1,0,0.2,0,0.3,0c0.2,0,0.3,0.1,0.3,0.2v18.5
		c0.1,0.8,0.3,1.3,0.7,1.7c0.4,0.3,0.9,0.5,1.7,0.5l1.6-0.1c0.1,0,0.1,0.1,0.1,0.4c0,0.2,0,0.4,0,0.5c0,0,0,0.2-0.1,0.3
		c0,0.2-0.2,0.3-0.3,0.4l-8.1,3.4c0,0-0.1,0-0.3,0.1c-0.1,0-0.2,0.1-0.2,0.1c-0.1,0-0.2-0.1-0.2-0.2c0-0.2,0-0.3,0-0.4v-2.6
		c-0.1-0.1-0.1-0.1-0.3-0.1c0,0-0.1,0-0.1,0s-0.1,0-0.1,0.1l-4.3,2.1c-0.4,0.1-0.8,0.3-1.1,0.4c-0.3,0.1-0.7,0.3-1,0.4
		c-0.3,0.1-0.7,0.2-1.1,0.3c-0.4,0.1-0.8,0.1-1.2,0.1c-0.8,0-1.6-0.1-2.5-0.2c-0.9-0.2-1.7-0.4-2.5-0.7c-0.8-0.3-1.4-0.8-1.9-1.3
		c-0.5-0.5-0.8-1.1-0.8-1.9V36.1C313.4,35.6,313.2,35.1,312.8,34.8z"/>
	<path class="st1" d="M345,55.5c-0.2,0-0.3,0-0.4,0.1c-0.1,0.1-0.2,0.2-0.4,0.3c-0.1,0.1-0.2,0.2-0.3,0.3c-0.1,0.1-0.2,0.1-0.4,0.1
		h-1c0,0-0.1-0.3-0.2-0.8c-0.1-0.5-0.1-1.1-0.2-1.9c-0.1-0.7-0.1-1.5-0.2-2.3c-0.1-0.8-0.1-1.4-0.1-1.9c0-0.3,0.1-0.5,0.3-0.5
		c0.2-0.1,0.4-0.1,0.7-0.1c0.1,0,0.3,0,0.4,0.1c0.2,0.1,0.3,0.2,0.4,0.3c0.1,0.1,0.3,0.3,0.4,0.4c0.1,0.1,0.2,0.3,0.2,0.4
		c0.3,0.7,0.6,1.3,0.9,1.8s0.7,1,1,1.4c0.4,0.4,0.9,0.7,1.4,0.9c0.5,0.2,1.2,0.3,1.9,0.3c0.6,0,1-0.1,1.4-0.3
		c0.4-0.2,0.6-0.5,0.8-0.8c0.2-0.3,0.3-0.7,0.4-1.1c0.1-0.4,0.1-0.8,0.1-1.3c0-0.9-0.3-1.6-0.8-2.3c-0.5-0.6-1.2-1.2-2-1.7
		c-0.8-0.5-1.7-1.1-2.6-1.6c-0.9-0.6-1.8-1.2-2.6-1.9c-0.8-0.7-1.5-1.6-2-2.6c-0.5-1-0.8-2.3-0.8-3.7c0-0.9,0.3-1.7,0.8-2.5
		c0.5-0.8,1.2-1.5,2.1-2.2c0.9-0.6,1.8-1.1,2.9-1.5c1.1-0.4,2.1-0.6,3.2-0.6c0.6,0,1.1,0,1.7,0.1c0.6,0.1,1.1,0.2,1.6,0.3
		c0.5,0.1,0.9,0.3,1.2,0.4c0.3,0.1,0.5,0.2,0.6,0.3c0.1,0.1,0.2,0.2,0.3,0.4c0.1,0.2,0.1,0.5,0.2,0.9c0,0.4,0,1,0.1,1.6
		c0,0.7,0,1.6,0,2.7c0,0.3-0.1,0.5-0.3,0.7c-0.2,0.1-0.4,0.2-0.7,0.2c-0.2,0-0.4,0-0.6-0.1c-0.2-0.1-0.3-0.2-0.4-0.3
		c-0.2-0.6-0.5-1.1-0.7-1.7c-0.3-0.6-0.6-1.1-0.9-1.5c-0.3-0.5-0.8-0.8-1.2-1.1c-0.5-0.3-1-0.4-1.6-0.4c-0.4,0-0.7,0-1.1,0.1
		c-0.4,0.1-0.7,0.3-1,0.5c-0.3,0.3-0.5,0.6-0.7,1.1c-0.2,0.4-0.3,1-0.3,1.7c0,0.6,0.3,1.2,0.8,1.7c0.6,0.5,1.3,1,2.1,1.6
		c0.8,0.5,1.8,1.1,2.7,1.7c1,0.6,1.9,1.3,2.7,2.1c0.8,0.8,1.5,1.7,2.1,2.7c0.6,1,0.8,2.2,0.8,3.6c0,1-0.3,2-0.8,2.8
		c-0.5,0.8-1.2,1.5-2.1,2.1c-0.8,0.6-1.8,1-2.8,1.3c-1,0.3-2,0.5-3,0.5c-0.5,0-1,0-1.5-0.1c-0.5-0.1-1-0.2-1.4-0.3
		c-0.4-0.1-0.8-0.2-1-0.3S345,55.5,345,55.5z"/>
</g>
<g>
	<path class="st1" d="M9.8,61c0-0.2,0.1-0.3,0.3-0.3c0.5,0,1-0.1,1.6-0.2c0.6-0.1,1.2-0.3,1.9-0.7c0.6-0.4,1.3-0.9,1.9-1.6
		c0.6-0.7,1.1-1.6,1.5-2.8l14.6-42.3c0,0,0,0,0,0c0,0,0-0.1,0-0.1c0-0.2-0.1-0.4-0.2-0.6c-0.1-0.3-0.2-0.4-0.2-0.6
		c0-0.1,0-0.2,0.1-0.2h10.5c0,0,0.1,0,0.2,0.1c0.1,0,0.1,0.1,0.2,0.2l15.3,43c0.2,0.7,0.5,1.3,0.7,1.7c0.2,0.5,0.5,0.9,0.8,1.3
		c0.3,0.4,0.7,0.7,1.1,1c0.5,0.3,1.1,0.6,1.8,0.9c0.3,0.2,0.8,0.4,1.4,0.5c0.6,0.2,1.1,0.3,1.7,0.3c0.1,0,0.2,0,0.2,0.1
		c0,0.1,0.1,0.1,0.1,0.2v1.4c0,0,0,0.1-0.1,0.2c0,0.1-0.1,0.1-0.2,0.1H39.6c-0.1,0-0.2,0-0.2-0.1c0-0.1-0.1-0.1-0.1-0.2V61
		c0,0,0-0.1,0.1-0.2c0-0.1,0.1-0.1,0.2-0.1c0.1,0,0.2,0,0.3,0c0.1,0,0.2,0,0.2,0c0.3,0,0.6,0,1.1-0.1c0.5,0,1-0.1,1.6-0.1
		c0.6-0.1,1.2-0.2,1.8-0.3c0.6-0.1,1.1-0.3,1.6-0.6c0.5-0.3,0.9-0.6,1.2-1c0.3-0.4,0.5-0.9,0.5-1.5c0-0.1,0-0.3-0.1-0.5L43,43.5
		c0,0-0.1-0.2-0.1-0.3c-0.1-0.2-0.2-0.3-0.3-0.5c-0.1-0.2-0.3-0.3-0.5-0.5c-0.2-0.1-0.5-0.2-0.7-0.2H28.3c-0.3,0-0.6,0.1-0.8,0.2
		s-0.4,0.3-0.5,0.5c-0.1,0.2-0.3,0.3-0.3,0.5c-0.1,0.2-0.1,0.3-0.1,0.3c-0.8,2.3-1.4,4.2-2,5.7c-0.5,1.6-1,2.8-1.3,3.9
		c-0.4,1-0.6,1.8-0.8,2.4c-0.2,0.6-0.3,1-0.4,1.2c-0.1,0.3-0.1,0.4-0.2,0.6c0,0.1,0,0.2,0,0.2c0,0.1,0,0.2,0.1,0.2
		c0.2,0.6,0.5,1.1,1.1,1.5c0.5,0.4,1.1,0.7,1.8,0.9c0.7,0.2,1.4,0.4,2.1,0.5c0.7,0.1,1.3,0.1,1.9,0.1h0.9c0.1,0,0.2,0,0.2,0.1
		c0,0.1,0.1,0.1,0.1,0.2v1.4c0,0,0,0.1-0.1,0.2c0,0.1-0.1,0.1-0.2,0.1H10.1c-0.2,0-0.3-0.1-0.3-0.3V61z M28.8,36.7
		c0,0.1-0.1,0.2-0.1,0.4c0,0.1,0,0.2,0,0.4c0,0.1,0,0.3,0.1,0.3c0.1,0.1,0.2,0.1,0.4,0.1h10.9c0.3,0,0.4-0.1,0.5-0.2
		c0.1-0.1,0.1-0.2,0.1-0.4c0-0.1,0-0.2,0-0.3c0-0.1-0.1-0.2-0.1-0.3l-4.8-13.2c-0.1-0.3-0.3-0.6-0.5-0.7c-0.2-0.2-0.5-0.2-0.7-0.2
		c-0.2,0-0.4,0.1-0.7,0.3c-0.2,0.2-0.4,0.4-0.5,0.7L28.8,36.7z"/>
</g>
</svg>
