<?xml version="1.0" encoding="utf-8"?>
<!-- Generator: Adobe Illustrator 23.0.1, SVG Export Plug-In . SVG Version: 6.00 Build 0)  -->
<svg version="1.1" id="Layer_1" xmlns="http://www.w3.org/2000/svg" xmlns:xlink="http://www.w3.org/1999/xlink" x="0px" y="0px"
	 viewBox="0 0 186.8 33.4" style="enable-background:new 0 0 186.8 33.4;" xml:space="preserve">
<style type="text/css">
	.st0{fill:#F2BA18;stroke:#717A82;stroke-width:0.45;stroke-miterlimit:10;}
	.st1{fill:#FFFFFF;stroke:#717A82;stroke-width:0.45;stroke-miterlimit:10;}
</style>
<title>allergenius_logo</title>
<path class="st0" d="M7.2,1.2h19.8c2.9,0,5.2,2.4,5.2,5.2v19.8c0,2.9-2.4,5.2-5.2,5.2H7.2c-2.9,0-5.2-2.4-5.2-5.2V6.5
	C2,3.6,4.3,1.2,7.2,1.2z"/>
<path class="st1" d="M21.6,22.8h-9L11.2,27H6.5l8.1-22.5h5.3L27.9,27h-4.8L21.6,22.8z M17.1,9.8l-3.2,9.4h6.5L17.1,9.8z"/>
<path class="st0" d="M52.5,21.7h-7.2L44,25.2h-3.8L46.7,7H51l6.5,18.2h-3.8L52.5,21.7z M48.8,11.2l-2.6,7.6h5.2L48.8,11.2z"/>
<path class="st0" d="M59.7,5.9h3.6v19.2h-3.6V5.9z"/>
<path class="st0" d="M66.4,5.9H70v19.2h-3.6V5.9z"/>
<path class="st0" d="M79.9,25.4c-4.2,0-7.2-2.9-7.2-7.4s3-7.4,7.2-7.4c3.7-0.2,6.9,2.7,7.1,6.4c0,0.2,0,0.5,0,0.7
	c0,0.5,0,0.9-0.1,1.4H76.4c0,1.9,1.5,3.4,3.4,3.3c0,0,0,0,0.1,0c1.2,0.1,2.4-0.6,2.9-1.8h3.9C85.8,23.6,83,25.5,79.9,25.4z
	 M76.4,16.6h6.8c-0.1-1.8-1.5-3.2-3.3-3.1c0,0-0.1,0-0.1,0C78,13.5,76.5,14.8,76.4,16.6z"/>
<path class="st0" d="M92.9,25.2h-3.6V10.8h3.6V13c0.9-1.6,2.6-2.5,4.4-2.4v3.8h-1c-2.2,0-3.5,0.8-3.5,3.6L92.9,25.2z"/>
<path class="st0" d="M105.2,10.5c1.9-0.1,3.7,0.8,4.8,2.3v-2.1h3.7v14.5c0,3.9-2.4,7-7.1,7c-4.1,0-6.9-2-7.2-5.3h3.6
	c0.4,1.3,1.7,2.2,3.5,2.2c2,0,3.6-1.1,3.6-3.8v-2.2c-1.1,1.5-2.9,2.4-4.8,2.3c-3.7,0-6.6-3-6.6-7.5S101.5,10.5,105.2,10.5z
	 M106.1,13.7c-2.1,0-3.8,1.7-3.8,3.9c0,0.1,0,0.2,0,0.3c0,2.7,1.8,4.3,3.8,4.3s3.8-1.5,3.8-4.2S108.1,13.7,106.1,13.7z"/>
<path class="st0" d="M123.2,25.4c-4.2,0-7.2-2.9-7.2-7.4s3-7.4,7.2-7.4c3.7-0.2,6.9,2.7,7.1,6.4c0,0.2,0,0.5,0,0.7
	c0,0.5,0,0.9-0.1,1.4h-10.5c0,1.9,1.5,3.4,3.4,3.3c0,0,0,0,0.1,0c1.2,0.1,2.4-0.6,2.9-1.8h3.9C129,23.6,126.2,25.5,123.2,25.4z
	 M119.7,16.6h6.8c-0.1-1.8-1.6-3.1-3.4-3.1c0,0,0,0-0.1,0C121.3,13.5,119.8,14.8,119.7,16.6L119.7,16.6z"/>
<path class="st0" d="M142.8,17.2c0-2.3-1.3-3.6-3.2-3.6s-3.2,1.2-3.2,3.6v8h-3.6V10.8h3.6v1.8c1.1-1.3,2.7-2,4.3-2
	c3.4,0,5.8,2.2,5.8,6.2v8.4h-3.6V17.2z"/>
<path class="st0" d="M149.1,6.9c-0.1-1.2,0.9-2.3,2.1-2.3s2.3,0.9,2.3,2.1s-0.9,2.3-2.1,2.3c0,0-0.1,0-0.1,0
	C150.2,9.1,149.1,8.2,149.1,6.9C149.1,7,149.1,7,149.1,6.9z M149.5,10.8h3.6v14.4h-3.6L149.5,10.8z"/>
<path class="st0" d="M169.8,25.2h-3.7v-1.8c-1,1.3-2.6,2-4.3,2c-3.4,0-5.8-2.2-5.8-6.1v-8.5h3.6v7.9c0,2.3,1.3,3.6,3.2,3.6
	s3.2-1.2,3.2-3.6v-7.9h3.7V25.2z"/>
<path class="st0" d="M178.6,25.4c-3.6,0-6.1-2.1-6.3-4.8h3.7c0.2,1.2,1.4,2.1,2.6,1.9c1.4,0,2.2-0.6,2.2-1.5c0-2.6-8.1-0.9-8.1-6.2
	c0-2.4,2.1-4.3,5.7-4.3s5.6,1.9,5.8,4.8h-3.5c-0.1-1.2-1.2-2-2.4-1.9c0,0,0,0,0,0c-1.4,0-2,0.5-2,1.4c0,2.6,8,1,8.1,6.3
	C184.3,23.5,182.1,25.4,178.6,25.4z"/>
</svg>
