<?xml version="1.0" encoding="utf-8"?>
<!-- Generator: Adobe Illustrator 23.0.1, SVG Export Plug-In . SVG Version: 6.00 Build 0)  -->
<svg version="1.1" id="Layer_1" xmlns="http://www.w3.org/2000/svg" xmlns:xlink="http://www.w3.org/1999/xlink" x="0px" y="0px"
	 viewBox="0 0 276.7 49.5" style="enable-background:new 0 0 276.7 49.5;" xml:space="preserve">
<style type="text/css">
	.st0{fill:#F2BA18;stroke:#717A82;stroke-width:0.75;stroke-miterlimit:10;}
	.st1{fill:#FFFFFF;stroke:#717A82;stroke-width:0.75;stroke-miterlimit:10;}
</style>
<title>allergenius_logo</title>
<path class="st0" d="M9.8,2h29.6c4.3,0,7.8,3.5,7.8,7.8v29.6c0,4.3-3.5,7.8-7.8,7.8H9.8c-4.3,0-7.8-3.5-7.8-7.8V9.8
	C2,5.5,5.5,2,9.8,2z"/>
<path class="st1" d="M31.2,34.2H17.9l-2.2,6.4H8.6L20.7,7h7.9l12,33.5h-7.1L31.2,34.2z M24.5,14.8l-4.8,14h9.7L24.5,14.8z"/>
<path class="st0" d="M77.3,32.6H66.5l-1.8,5.2H59l9.7-27.1h6.3l9.7,27.1h-5.7L77.3,32.6z M71.9,16.9L68,28.2h7.8L71.9,16.9z"/>
<path class="st0" d="M88.1,9h5.4v28.7h-5.4V9z"/>
<path class="st0" d="M98.1,9h5.4v28.7h-5.4V9z"/>
<path class="st0" d="M118.3,38.1c-6.2,0-10.8-4.3-10.8-11.1s4.5-11.1,10.8-11.1c5.6-0.3,10.3,4,10.6,9.6c0,0.4,0,0.7,0,1.1
	c0,0.7,0,1.4-0.1,2.1H113c0,2.8,2.3,5,5.1,5c0,0,0.1,0,0.1,0c1.8,0.1,3.5-0.9,4.3-2.6h5.9C127,35.4,122.9,38.3,118.3,38.1z
	 M113.1,25h10.2c-0.1-2.6-2.3-4.7-4.9-4.6c-0.1,0-0.1,0-0.2,0C115.5,20.3,113.3,22.3,113.1,25z"/>
<path class="st0" d="M137.7,37.8h-5.4V16.2h5.4v3.3c1.4-2.3,3.9-3.7,6.6-3.6v5.7h-1.5c-3.2,0-5.2,1.2-5.2,5.4L137.7,37.8z"/>
<path class="st0" d="M156,15.9c2.8-0.1,5.5,1.2,7.1,3.4v-3.1h5.5v21.7c0,5.8-3.6,10.5-10.6,10.5c-6.1,0-10.3-3-10.8-8h5.4
	c0.5,1.9,2.6,3.2,5.3,3.2c3,0,5.3-1.7,5.3-5.7v-3.3c-1.7,2.3-4.3,3.6-7.1,3.5c-5.5,0-9.8-4.5-9.8-11.2S150.5,15.9,156,15.9z
	 M157.4,20.7c-3.2,0-5.7,2.6-5.7,5.8c0,0.2,0,0.3,0,0.5c0,4.1,2.8,6.4,5.7,6.4s5.7-2.2,5.7-6.3S160.4,20.7,157.4,20.7z"/>
<path class="st0" d="M182.9,38.1c-6.3,0-10.8-4.3-10.8-11.1s4.5-11.1,10.8-11.1c5.6-0.3,10.3,4,10.6,9.6c0,0.4,0,0.7,0,1.1
	c0,0.7-0.1,1.4-0.2,2.1h-15.7c0,2.8,2.3,5,5.1,5c0,0,0.1,0,0.1,0c1.8,0.1,3.6-0.9,4.3-2.6h5.9C191.6,35.4,187.5,38.3,182.9,38.1z
	 M177.7,24.9h10.2c-0.1-2.6-2.4-4.7-5-4.6c0,0-0.1,0-0.1,0C180.1,20.3,177.9,22.3,177.7,24.9L177.7,24.9z"/>
<path class="st0" d="M212.1,25.9c0-3.4-1.9-5.3-4.8-5.3c-2.9,0-4.9,1.9-4.9,5.3v11.9h-5.4V16.2h5.4v2.7c1.6-2,4-3.1,6.5-3
	c5,0,8.6,3.3,8.6,9.2v12.6h-5.4V25.9z"/>
<path class="st0" d="M221.6,10.5c-0.1-1.8,1.3-3.4,3.2-3.5c1.8-0.1,3.4,1.3,3.5,3.2c0.1,1.8-1.3,3.4-3.2,3.5c-0.1,0-0.1,0-0.2,0
	c-1.8,0.1-3.3-1.3-3.3-3C221.6,10.6,221.6,10.6,221.6,10.5z M222.2,16.2h5.4v21.5h-5.4L222.2,16.2z"/>
<path class="st0" d="M252.5,37.8H247v-2.7c-1.5,1.9-3.9,3-6.4,3c-5,0-8.6-3.3-8.6-9.2V16.2h5.4v11.8c0,3.5,1.9,5.3,4.8,5.3
	c2.9,0,4.8-1.9,4.8-5.3V16.2h5.5V37.8z"/>
<path class="st0" d="M265.7,38.1c-5.4,0-9.2-3.1-9.4-7.1h5.5c0.4,1.8,2,3.1,3.9,2.9c2.1,0,3.3-1,3.3-2.2c0-3.8-12.2-1.4-12.2-9.3
	c0-3.6,3.2-6.4,8.5-6.4s8.3,2.8,8.7,7.1h-5.2c-0.2-1.8-1.8-3-3.5-2.8c0,0,0,0-0.1,0c-2,0-3,0.8-3,2c0,3.9,11.9,1.5,12.1,9.4
	C274.1,35.3,270.9,38.1,265.7,38.1z"/>
</svg>
