<?xml version="1.0" encoding="utf-8"?>
<!-- Generator: Adobe Illustrator 23.0.3, SVG Export Plug-In . SVG Version: 6.00 Build 0)  -->
<svg version="1.1" id="Layer_1" xmlns="http://www.w3.org/2000/svg" xmlns:xlink="http://www.w3.org/1999/xlink" x="0px" y="0px"
	 viewBox="0 0 32 32" style="enable-background:new 0 0 32 32;" xml:space="preserve">
<style type="text/css">
	.st0{fill:#FDFFFC;}
	.st1{fill:#246EB9;}
</style>
<title>favicon</title>
<path class="st0" d="M20.7,22.8h-9.5l-1.5,4.5h-5l8.5-23.8h5.6l8.5,23.8h-5L20.7,22.8z M16,9.1L12.6,19h6.9L16,9.1z"/>
<path class="st1" d="M5.6,0h20.9c3,0,5.5,2.5,5.5,5.5v20.9c0,3-2.5,5.5-5.5,5.5H5.6c-3,0-5.5-2.5-5.5-5.5V5.5C0,2.5,2.5,0,5.6,0z"/>
<g>
	<path class="st0" d="M3.4,26.5c0-0.1,0-0.1,0.1-0.1c0.2,0,0.5,0,0.7-0.1c0.3,0,0.6-0.2,0.9-0.3c0.3-0.2,0.6-0.4,0.8-0.7
		C6.3,25,6.5,24.5,6.7,24l6.6-19.2c0,0,0,0,0,0c0,0,0,0,0-0.1c0-0.1,0-0.2-0.1-0.3c-0.1-0.1-0.1-0.2-0.1-0.3c0-0.1,0-0.1,0.1-0.1H18
		c0,0,0.1,0,0.1,0c0,0,0.1,0,0.1,0.1l6.9,19.5c0.1,0.3,0.2,0.6,0.3,0.8c0.1,0.2,0.2,0.4,0.4,0.6c0.1,0.2,0.3,0.3,0.5,0.5
		c0.2,0.1,0.5,0.3,0.8,0.4c0.2,0.1,0.4,0.2,0.6,0.2c0.3,0.1,0.5,0.1,0.8,0.1c0.1,0,0.1,0,0.1,0c0,0,0,0.1,0,0.1v0.6c0,0,0,0,0,0.1
		c0,0-0.1,0-0.1,0H16.9c-0.1,0-0.1,0-0.1,0c0,0,0-0.1,0-0.1v-0.6c0,0,0,0,0-0.1c0,0,0.1,0,0.1,0c0,0,0.1,0,0.1,0c0,0,0.1,0,0.1,0
		c0.1,0,0.3,0,0.5,0c0.2,0,0.5,0,0.7-0.1c0.3,0,0.5-0.1,0.8-0.1c0.3-0.1,0.5-0.1,0.7-0.3c0.2-0.1,0.4-0.3,0.5-0.5
		c0.1-0.2,0.2-0.4,0.2-0.7c0-0.1,0-0.1,0-0.2l-2.2-5.9c0,0,0-0.1-0.1-0.1c0-0.1-0.1-0.2-0.1-0.2c-0.1-0.1-0.1-0.2-0.2-0.2
		c-0.1-0.1-0.2-0.1-0.3-0.1h-5.9c-0.1,0-0.3,0-0.4,0.1c-0.1,0.1-0.2,0.1-0.2,0.2c-0.1,0.1-0.1,0.2-0.2,0.2c0,0.1-0.1,0.1-0.1,0.1
		c-0.4,1-0.6,1.9-0.9,2.6c-0.2,0.7-0.4,1.3-0.6,1.7c-0.2,0.5-0.3,0.8-0.4,1.1C9.1,24.2,9,24.4,9,24.5c0,0.1-0.1,0.2-0.1,0.3
		c0,0,0,0.1,0,0.1c0,0,0,0.1,0,0.1c0.1,0.3,0.2,0.5,0.5,0.7c0.2,0.2,0.5,0.3,0.8,0.4c0.3,0.1,0.6,0.2,0.9,0.2c0.3,0,0.6,0.1,0.9,0.1
		h0.4c0.1,0,0.1,0,0.1,0c0,0,0,0.1,0,0.1v0.6c0,0,0,0,0,0.1c0,0-0.1,0-0.1,0H3.6c-0.1,0-0.1,0-0.1-0.1V26.5z M12.1,15.5
		c0,0.1,0,0.1,0,0.2c0,0.1,0,0.1,0,0.2c0,0.1,0,0.1,0,0.2c0,0,0.1,0.1,0.2,0.1h4.9c0.1,0,0.2,0,0.2-0.1c0,0,0.1-0.1,0.1-0.2
		c0-0.1,0-0.1,0-0.1c0,0,0-0.1,0-0.1l-2.2-6c-0.1-0.2-0.1-0.3-0.2-0.3c-0.1-0.1-0.2-0.1-0.3-0.1c-0.1,0-0.2,0-0.3,0.1
		c-0.1,0.1-0.2,0.2-0.2,0.3L12.1,15.5z"/>
</g>
</svg>
