<?xml version="1.0" encoding="utf-8"?>
<!-- Generator: Adobe Illustrator 23.0.1, SVG Export Plug-In . SVG Version: 6.00 Build 0)  -->
<svg version="1.1" id="Layer_1" xmlns="http://www.w3.org/2000/svg" xmlns:xlink="http://www.w3.org/1999/xlink" x="0px" y="0px"
	 viewBox="0 0 182.3 31.1" style="enable-background:new 0 0 182.3 31.1;" xml:space="preserve">
<style type="text/css">
	.st0{fill:#F2BA18;}
	.st1{fill:#FFFFFF;}
</style>
<title>allergenius_logo</title>
<path class="st0" d="M5.2,0H25c2.9,0,5.2,2.4,5.2,5.2V25c0,2.9-2.4,5.2-5.2,5.2H5.2C2.4,30.3,0,28,0,25.1V5.2C0,2.4,2.4,0,5.2,0z"/>
<path class="st1" d="M19.7,21.6h-9.1L9.1,26H4.3l8.2-23h5.4l8.2,22.9h-4.9L19.7,21.6z M15.1,8.3l-3.3,9.6h6.6L15.1,8.3z"/>
<path class="st1" d="M50.5,20.5h-7.2L42.1,24h-3.8l6.5-18.2H49L55.5,24h-3.8L50.5,20.5z M46.9,10l-2.6,7.6h5.2L46.9,10z"/>
<path class="st1" d="M57.7,4.7h3.6V24h-3.6V4.7z"/>
<path class="st1" d="M64.4,4.7H68V24h-3.6V4.7z"/>
<path class="st1" d="M77.9,24.2c-4.2,0-7.2-2.9-7.2-7.4s3-7.4,7.2-7.4c3.7-0.2,6.9,2.7,7.1,6.4c0,0.2,0,0.5,0,0.7
	c0,0.5,0,0.9-0.1,1.4H74.4c0,1.9,1.5,3.4,3.4,3.3c0,0,0,0,0.1,0c1.2,0.1,2.4-0.6,2.9-1.8h3.9C83.8,22.4,81,24.3,77.9,24.2z
	 M74.4,15.4h6.8c-0.1-1.8-1.5-3.2-3.3-3.1h-0.1C76.1,12.3,74.6,13.6,74.4,15.4z"/>
<path class="st1" d="M90.9,24h-3.6V9.6h3.6v2.2c0.9-1.6,2.6-2.5,4.4-2.4v3.8h-1c-2.2,0-3.5,0.8-3.5,3.6L90.9,24z"/>
<path class="st1" d="M103.2,9.3c1.9-0.1,3.7,0.8,4.8,2.3v-2h3.7v14.5c0,3.9-2.4,7-7.1,7c-4.1,0-6.9-2-7.2-5.3h3.6
	c0.4,1.3,1.7,2.2,3.5,2.2c2,0,3.6-1.1,3.6-3.8V22c-1.1,1.5-2.9,2.4-4.8,2.3c-3.7,0-6.6-3-6.6-7.5S99.5,9.3,103.2,9.3z M104.1,12.5
	c-2.1,0-3.8,1.7-3.8,3.9c0,0.1,0,0.2,0,0.3c0,2.7,1.8,4.3,3.8,4.3s3.8-1.5,3.8-4.2S106.1,12.5,104.1,12.5z"/>
<path class="st1" d="M121.2,24.2c-4.2,0-7.2-2.9-7.2-7.4s3-7.4,7.2-7.4c3.7-0.2,6.9,2.7,7.1,6.4c0,0.2,0,0.5,0,0.7
	c0,0.5,0,0.9-0.1,1.4h-10.5c0,1.9,1.5,3.4,3.4,3.3c0,0,0,0,0.1,0c1.2,0.1,2.4-0.6,2.9-1.8h3.9C127,22.4,124.3,24.3,121.2,24.2z
	 M117.7,15.4h6.8c-0.1-1.8-1.6-3.1-3.4-3.1c0,0,0,0-0.1,0C119.3,12.3,117.8,13.6,117.7,15.4L117.7,15.4z"/>
<path class="st1" d="M140.8,16c0-2.3-1.3-3.6-3.2-3.6s-3.2,1.2-3.2,3.6v8h-3.6V9.6h3.6v1.8c1.1-1.3,2.7-2,4.3-2
	c3.4,0,5.8,2.2,5.8,6.2V24h-3.6v-8H140.8z"/>
<path class="st1" d="M147.1,5.7c-0.1-1.2,0.9-2.3,2.1-2.3s2.3,0.9,2.3,2.1s-0.9,2.3-2.1,2.3h-0.1C148.2,7.9,147.2,7,147.1,5.7
	C147.1,5.8,147.1,5.8,147.1,5.7z M147.5,9.6h3.6V24h-3.6V9.6z"/>
<path class="st1" d="M167.8,24h-3.7v-1.8c-1,1.3-2.6,2-4.3,2c-3.4,0-5.8-2.2-5.8-6.1V9.6h3.6v7.9c0,2.3,1.3,3.6,3.2,3.6
	s3.2-1.2,3.2-3.6V9.6h3.7V24H167.8z"/>
<path class="st1" d="M176.6,24.2c-3.6,0-6.1-2.1-6.3-4.8h3.7c0.2,1.2,1.4,2.1,2.6,1.9c1.4,0,2.2-0.6,2.2-1.5c0-2.6-8.1-0.9-8.1-6.2
	c0-2.4,2.1-4.3,5.7-4.3s5.6,1.9,5.8,4.8h-3.5c-0.1-1.2-1.2-2-2.4-1.9l0,0c-1.4,0-2,0.5-2,1.4c0,2.6,8,1,8.1,6.3
	C182.3,22.3,180.1,24.2,176.6,24.2z"/>
</svg>
